<svg xmlns="http://www.w3.org/2000/svg" version="1.1" xmlns:xlink="http://www.w3.org/1999/xlink" width="512" height="512" x="0" y="0" viewBox="0 0 512 512" style="enable-background:new 0 0 512 512" xml:space="preserve" class=""><g><path d="M116.219 423.397v35.04c0 8.28-6.7 14.98-14.98 14.98H38.01c-8.27 0-14.97-6.7-14.97-14.98v-45.38M488.968 413.047v45.39c0 8.28-6.71 14.98-14.98 14.98h-63.23c-8.27 0-14.98-6.7-14.98-14.98v-35.04M442.368 256.017h41.59c6.46 0 12.19-4.13 14.23-10.26l5.53-16.58c3.24-9.71-3.99-19.74-14.23-19.74h-48.51c-7.91 0-14.39 6.12-14.95 13.89M85.97 223.338c-.55-7.78-7.03-13.9-14.95-13.9h-48.5c-10.24 0-17.47 10.03-14.23 19.74l5.52 16.58a15.01 15.01 0 0 0 14.23 10.26h41.59" style="stroke-width:15;stroke-linecap:round;stroke-linejoin:round;stroke-miterlimit:10;" fill="none" stroke="#3350b9" stroke-width="15" stroke-linecap="round" stroke-linejoin="round" stroke-miterlimit="10" data-original="#000000" opacity="1"></path><path d="M504.498 364.417v46.91l-139.769 15.52h-217.44L7.5 411.327v-99.24c0-10.67 5.5-20.59 14.54-26.26l47.59-29.8M442.378 256.027l47.61 29.88a30.953 30.953 0 0 1 14.51 26.23v19.59" style="stroke-width:15;stroke-linecap:round;stroke-linejoin:round;stroke-miterlimit:10;" fill="none" stroke="#3350b9" stroke-width="15" stroke-linecap="round" stroke-linejoin="round" stroke-miterlimit="10" data-original="#000000" opacity="1"></path><path d="M272.349 162.838h104.27c11.75 0 22.48 6.64 27.73 17.14l38.03 76.05-93.18 15.52h-186.38l-93.19-15.52 38.02-76.05c5.26-10.5 15.99-17.14 27.73-17.14h104.29" style="stroke-width:15;stroke-linecap:round;stroke-linejoin:round;stroke-miterlimit:10;" fill="none" stroke="#3350b9" stroke-width="15" stroke-linecap="round" stroke-linejoin="round" stroke-miterlimit="10" data-original="#000000" opacity="1"></path><path d="m107.654 179.979 6.963-13.926a62 62 0 0 1 55.454-34.273h171.861a61.998 61.998 0 0 1 55.454 34.273l6.963 13.926M120.108 393.849l-73.187-12.202a9.999 9.999 0 0 1-8.355-9.864v-34.204c0-10.742 8.708-19.449 19.449-19.449h0a87.6 87.6 0 0 1 47.769 14.17l17.124 11.139a19.45 19.45 0 0 1 8.844 16.303v24.243c.001 6.18-5.548 10.88-11.644 9.864zM395.25 380.254h63.186c8.284 0 15-6.716 15-15V333.13c0-8.284-6.716-15-15-15h0a102.6 102.6 0 0 0-55.948 16.596l-15.418 10.029a15.001 15.001 0 0 0-6.821 12.574v7.925c.001 8.285 6.716 15 15.001 15zM214.109 333.677h112.639c14.5 0 28.55-5.09 39.69-14.37l75.94-63.28M69.63 256.027l75.95 63.28a62.005 62.005 0 0 0 35.84 14.25M349.195 426.846H162.822v-47.111c0-8.284 6.716-15 15-15h156.373c8.284 0 15 6.716 15 15v47.111zM193.885 100.706h124.248v31.074H193.885z" style="stroke-width:15;stroke-linecap:round;stroke-linejoin:round;stroke-miterlimit:10;" fill="none" stroke="#3350b9" stroke-width="15" stroke-linecap="round" stroke-linejoin="round" stroke-miterlimit="10" data-original="#000000" opacity="1"></path><path d="M232.709 54.118h-54.89c-8.29 0-15 6.71-15 15v31.59h186.38v-31.59c0-8.29-6.72-15-15-15h-54.89" style="stroke-width:15;stroke-linecap:round;stroke-linejoin:round;stroke-miterlimit:10;" fill="none" stroke="#3350b9" stroke-width="15" stroke-linecap="round" stroke-linejoin="round" stroke-miterlimit="10" data-original="#000000" opacity="1"></path><path d="M279.307 100.705H232.71V45.583a7 7 0 0 1 7-7h32.597a7 7 0 0 1 7 7v55.122zM401.277 77.41h15.535M380.257 49.568l10.985-10.984M380.257 105.251l10.985 10.984M110.741 77.41H95.206M131.76 49.568l-10.984-10.984M131.76 105.251l-10.984 10.984" style="stroke-width:15;stroke-linecap:round;stroke-linejoin:round;stroke-miterlimit:10;" fill="none" stroke="#3350b9" stroke-width="15" stroke-linecap="round" stroke-linejoin="round" stroke-miterlimit="10" data-original="#000000" opacity="1"></path></g></svg>