<svg xmlns="http://www.w3.org/2000/svg" version="1.1" xmlns:xlink="http://www.w3.org/1999/xlink" width="512" height="512" x="0" y="0" viewBox="0 0 64 64" style="enable-background:new 0 0 512 512" xml:space="preserve" class=""><g><path d="M1.043 22.29A1 1 0 0 0 2 23h1v3a1 1 0 0 0 1 1h3v3a1 1 0 0 0 1 1h1v20H6a1 1 0 0 0-1 1v3H4a1 1 0 0 0-1 1v6a1 1 0 0 0 1 1h56a1 1 0 0 0 1-1v-6a1 1 0 0 0-1-1h-1v-3a1 1 0 0 0-1-1h-3V31h1a1 1 0 0 0 1-1v-3h3a1 1 0 0 0 1-1v-3h1a1 1 0 0 0 .555-1.832l-30-20a1 1 0 0 0-1.11 0l-30 20a1 1 0 0 0-.402 1.122ZM15 27v2H9v-2Zm33 4h1v20H15V31h1a1 1 0 0 0 1-1v-3h30v3a1 1 0 0 0 1 1Zm-37 0h2v20h-2Zm48 30H5v-4h54Zm-2-6H7v-2h50Zm-4-4h-2V31h2Zm2-22h-6v-2h6Zm4-4H5v-2h54ZM32 3.2 58.7 21H5.3Z" fill="#3350b9" opacity="1" data-original="#000000" class=""></path><path d="M32 7a6 6 0 1 0 6 6 6.006 6.006 0 0 0-6-6Zm0 10a4 4 0 1 1 4-4 4 4 0 0 1-4 4ZM41.849 32.472A1 1 0 0 0 41 32h-6.184A2.966 2.966 0 0 0 35 31a3 3 0 0 0-6 0 2.966 2.966 0 0 0 .184 1H23a1 1 0 0 0-.848.47l-5 8A1 1 0 0 0 17 41a6 6 0 0 0 12 0 1 1 0 0 0-.152-.53L24.8 34H31v13h-3v2h8v-2h-3V34h6.2l-4.044 6.47A1 1 0 0 0 35 41a6 6 0 0 0 12 0 1 1 0 0 0-.152-.53ZM23 45a4.006 4.006 0 0 1-3.871-3h7.742A4.006 4.006 0 0 1 23 45Zm3.2-5h-6.39L23 34.887ZM32 30a1 1 0 1 1-1 1 1 1 0 0 1 1-1Zm9 4.887L44.2 40h-6.39ZM41 45a4.006 4.006 0 0 1-3.871-3h7.742A4.006 4.006 0 0 1 41 45Z" fill="#3350b9" opacity="1" data-original="#000000" class=""></path></g></svg>