<svg xmlns="http://www.w3.org/2000/svg" version="1.1" xmlns:xlink="http://www.w3.org/1999/xlink" width="512" height="512" x="0" y="0" viewBox="0 0 512 512" style="enable-background:new 0 0 512 512" xml:space="preserve" class=""><g><path d="M475.944 128.04c-18.616-18.615-42.83-30.78-68.793-34.686V70.638c0-4.535-2.177-8.852-5.825-11.55l-5.312-3.926a10.703 10.703 0 0 0-12.791-.001l-3.621 2.678-3.617-2.676a10.701 10.701 0 0 0-12.792 0l-3.618 2.675-3.615-2.673a10.7 10.7 0 0 0-12.795 0l-5.306 3.925c-3.076 2.276-5.088 5.71-5.646 9.42l-9.83-9.83c-5.204-5.203-12.123-8.07-19.482-8.07s-14.278 2.867-19.481 8.07l-20.186 20.186-10.744-10.744c6.181-7.262 5.857-18.201-1.001-25.061l-21.151-21.15c-3.495-3.496-8.141-5.42-13.084-5.42s-9.589 1.924-13.084 5.419l-6.658 6.659h-33.267l-5.167-5.167c-7.215-7.213-18.953-7.214-26.167.001L111.76 44.555c-3.495 3.494-5.419 8.14-5.419 13.083s1.924 9.589 5.419 13.084l4.323 4.323v26.908c-9.507.763-17.014 8.728-17.014 18.427v29.913c0 9.7 7.507 17.665 17.014 18.427v18.307H87.681c-15.192 0-27.551 12.36-27.551 27.551v51.777C22.926 288.62 0 328.772 0 372.209c0 28.34 9.893 56.035 27.857 77.983 23.088 28.209 58.968 45.358 95.443 45.317 67.988 0 123.3-55.312 123.3-123.3 0-26.327-8.52-52.05-24.118-73.171l16.064-16.063a14.424 14.424 0 0 0 4.048-12.285l-.979-6.534a10.7 10.7 0 0 0-9.043-9.044l-4.455-.668-.665-4.447a10.7 10.7 0 0 0-9.046-9.049l-4.45-.666-.665-4.448a10.702 10.702 0 0 0-9.049-9.047l-6.527-.975c-3.781-.565-7.634.441-10.653 2.671v-13.904c0-15.191-12.359-27.551-27.551-27.551h-28.4V168.72c9.507-.763 17.014-8.728 17.014-18.427V120.38c0-9.7-7.507-17.665-17.014-18.427V84.51c.743.09 1.492.151 2.252.151 4.943 0 9.589-1.924 13.083-5.419l21.153-21.152c3.964-3.965 5.736-9.296 5.342-14.493h17.294a18.377 18.377 0 0 0 5.415 13l21.151 21.152v.001a18.446 18.446 0 0 0 13.084 5.41c4.271 0 8.534-1.48 11.977-4.411l10.744 10.744-19.978 19.977c-10.742 10.743-10.742 28.221 0 38.963l7.766 7.767a7.514 7.514 0 0 0 10.627-10.625l-7.766-7.768c-4.883-4.882-4.883-12.827 0-17.709l50.791-50.791c2.365-2.365 5.509-3.668 8.854-3.668s6.49 1.303 8.855 3.669l46.492 46.492c3.469 3.468 4.96 8.228 4.092 13.058-.864 4.799-3.895 8.712-8.317 10.737a82.712 82.712 0 0 0-24.115 16.784c-16.362 16.363-25.205 39.057-24.261 62.261.853 20.957 9.47 40.645 24.262 55.438 27.627 27.626 71.447 32.232 104.193 10.948 4.858-3.157 11.398-2.431 15.551 1.724a12.445 12.445 0 0 1 3.592 10.156c-1.684 5.897-5.192 9.959-10.527 12.185-41.959 24.096-95.995 17.22-130.52-17.302-27.897-27.898-38.379-68.856-27.353-106.889a7.514 7.514 0 0 0-1.903-7.405l-7.829-7.829a7.515 7.515 0 0 0-10.627 10.627l4.755 4.754c-10.563 42.049 1.616 86.652 32.331 117.368 20.04 20.039 46.618 32.628 74.839 35.444 36.113 3.606 73.844-9.758 99.533-35.444 48.076-48.076 48.076-126.299.001-174.375zM174.269 304.795a29.808 29.808 0 0 0 12.791-24.465v-30.958l8.762-8.648 3.072.459.665 4.448a10.696 10.696 0 0 0 9.046 9.045l4.449.666.666 4.452a10.701 10.701 0 0 0 9.043 9.043l4.456.668.462 3.081-20.529 20.528a7.516 7.516 0 0 0-.472 10.109c16.051 19.364 24.891 43.864 24.891 68.987 0 58.581-46.768 106.441-104.926 108.216a27.432 27.432 0 0 0 4.168-14.583c0-12.93-9.12-24.249-21.687-26.915-31.305-6.641-54.026-34.7-54.026-66.718 0-17.133 6.416-33.53 18.067-46.17 12.904-13.999 31.177-22.028 50.132-22.028a68.185 68.185 0 0 1 22.553 3.851c26.552 9.332 45.645 34.645 45.645 64.347 0 26.874-15.898 51.335-40.502 62.318a7.514 7.514 0 0 0-3.798 9.925c2.785 4.106 6.093 5.372 9.925 3.798 30.011-13.397 49.403-43.245 49.403-76.041 0-27.237-13.157-51.452-33.443-66.642.4-.251.798-.503 1.187-.773zm-2.236-90.217v65.751c0 4.906-2.311 9.325-6.341 12.126-4.003 2.782-8.914 3.408-13.474 1.711-9.359-3.431-18.998-5.159-28.918-5.183-23.14 0-45.44 9.794-61.181 26.871-14.216 15.423-22.045 35.437-22.045 56.355 0 39.072 27.729 73.313 65.934 81.419 5.666 1.201 9.778 6.339 9.778 12.214 0 3.794-1.693 7.338-4.642 9.722-5.375 2.986-10.744 3.372-16.105 1.159-46.685-12.647-80.011-55.707-80.011-104.514 0-39.454 21.55-75.826 56.24-94.922a7.515 7.515 0 0 0 3.89-6.582v-56.126c0-6.905 5.618-12.523 12.523-12.523h71.829c6.905-.001 12.523 5.617 12.523 12.522zm-38.938-94.198v29.913a3.471 3.471 0 0 1-2.001 3.135c-.155-4.013-3.448-7.221-7.499-7.221s-7.344 3.207-7.499 7.221a3.471 3.471 0 0 1-2.001-3.135V120.38c0-1.462.91-2.71 2.191-3.223.778 3.321 3.751 5.797 7.309 5.797s6.532-2.476 7.309-5.797a3.475 3.475 0 0 1 2.191 3.223zm23.877-72.917-21.153 21.152a3.463 3.463 0 0 1-4.709.18v-2.073a7.514 7.514 0 0 0-7.514-7.514c-.6 0-1.18.078-1.74.211a3.497 3.497 0 0 1-.489-1.781 3.46 3.46 0 0 1 1.018-2.457l.001-.001 21.15-21.151a3.47 3.47 0 0 1 2.459-1.017c.889 0 1.78.339 2.457 1.017l1.717 1.717c-.005.112-.017.223-.017.336a7.514 7.514 0 0 0 7.514 7.514h.015a3.477 3.477 0 0 1-.709 3.867zm70.456 19.659L206.276 45.97a3.444 3.444 0 0 1-1.015-2.374h1.121a7.514 7.514 0 0 0 7.156-9.803l1.258-1.258c.885-.885 1.92-1.018 2.457-1.018s1.571.132 2.458 1.018l21.151 21.15a3.475 3.475 0 0 1 .803 3.632c-2.948-2.727-7.544-2.666-10.409.197-2.864 2.865-2.924 7.461-.197 10.409a3.464 3.464 0 0 1-3.631-.801zm240.216 222.26a27.436 27.436 0 0 0-7.365-13.26c-2.63-2.63-5.708-4.61-9.003-5.961a82.928 82.928 0 0 0 9.871-13.85 7.514 7.514 0 1 0-13.071-7.415 68.161 68.161 0 0 1-11.094 14.554c-25.943 25.942-70.261 26.185-96.448.001-12.116-12.117-19.173-28.248-19.872-45.423-.775-19.023 6.468-37.621 19.872-51.025 26.185-26.19 70.189-26.26 96.447 0 13.436 13.435 20.506 31.331 19.906 50.39a7.513 7.513 0 0 0 7.514 7.751 7.514 7.514 0 0 0 7.506-7.278c.721-22.913-8.136-45.326-24.299-61.49-19.262-19.261-45.688-27.07-70.775-23.459.107-.464.212-.928.296-1.4a29.815 29.815 0 0 0-8.254-26.347l-21.891-21.891.081-12.309 2.498-1.847 3.614 2.674a10.701 10.701 0 0 0 12.792 0l3.618-2.675 3.616 2.675a10.704 10.704 0 0 0 12.792.002l3.623-2.679 2.505 1.851v29.032a7.515 7.515 0 0 0 6.814 7.482c25.04 2.342 48.615 13.415 66.38 31.181 41.425 41.425 42.196 108.337 2.327 150.716z" fill="#3350b9" opacity="1" data-original="#000000" class=""></path></g></svg>