<svg xmlns="http://www.w3.org/2000/svg" version="1.1" xmlns:xlink="http://www.w3.org/1999/xlink" width="512" height="512" x="0" y="0" viewBox="0 0 64 64" style="enable-background:new 0 0 512 512" xml:space="preserve" class=""><g><path d="M52.542 44.862 37 42.159v-2.391A9.01 9.01 0 0 0 44 31h1a1 1 0 0 0 1-1v-5a4 4 0 0 0 0-8v-2a14 14 0 0 0-28 0v2a4 4 0 0 0 0 8v5a1 1 0 0 0 1 1h1a9.01 9.01 0 0 0 7 8.768v2.391l-15.543 2.7A8.984 8.984 0 0 0 4 53.729V62a1 1 0 0 0 1 1h54a1 1 0 0 0 1-1v-8.271a8.984 8.984 0 0 0-7.458-8.867zM48 61H16v-2.3a28.206 28.206 0 0 0-2.761-12.119l7.3-1.269.226.451A11.773 11.773 0 0 1 22 51a1 1 0 0 0 1 1h18a1 1 0 0 0 1-1 11.773 11.773 0 0 1 1.236-5.236l.226-.451 7.3 1.269A28.206 28.206 0 0 0 48 58.7zM27.66 44.074l3.633 3.633a1 1 0 0 0 1.414 0l3.633-3.633 5.069.882A13.787 13.787 0 0 0 40.037 50H23.963a13.807 13.807 0 0 0-1.372-5.044zM21 29h-1v-8h2v7a1 1 0 0 1-1 1zm-1-10v-2h24v2zm23 10a1 1 0 0 1-1-1v-7h2v8zm5-8a2 2 0 0 1-2 2v-4a2 2 0 0 1 2 2zM32 3a12.013 12.013 0 0 1 12 12H20A12.013 12.013 0 0 1 32 3zM16 21a2 2 0 0 1 2-2v4a2 2 0 0 1-2-2zm6 10v-.184A3 3 0 0 0 24 28v-7h16v7a3 3 0 0 0 2 2.816V31a7.008 7.008 0 0 1-7 7h-6a7.008 7.008 0 0 1-7-7zm13 9v2.586l-3 3-3-3V40zM6 53.729a6.987 6.987 0 0 1 5.2-6.765A26.2 26.2 0 0 1 14 58.7V61H6zM58 61h-8v-2.3a26.192 26.192 0 0 1 2.8-11.736 6.984 6.984 0 0 1 5.2 6.765z" fill="#3350b9" opacity="1" data-original="#000000"></path><path d="M20 53h24v2H20zM20 57h24v2H20zM36.447 7.105l-4-2a1 1 0 0 0-.894 0l-4 2A1 1 0 0 0 27 8a5.823 5.823 0 0 0 3.236 5.236l1.317.659a1 1 0 0 0 .894 0l1.317-.659A5.823 5.823 0 0 0 37 8a1 1 0 0 0-.553-.895zm-3.578 4.342-.869.435-.869-.435A3.83 3.83 0 0 1 29.045 8.6L32 7.118 34.955 8.6a3.83 3.83 0 0 1-2.086 2.847zM26.287 28.293l5-5 1.413 1.415-4.999 4.999zM29.287 32.293l7.998-7.998 1.414 1.414-7.998 7.998z" fill="#3350b9" opacity="1" data-original="#000000"></path></g></svg>