<svg xmlns="http://www.w3.org/2000/svg" version="1.1" xmlns:xlink="http://www.w3.org/1999/xlink" width="512" height="512" x="0" y="0" viewBox="0 0 512 512" style="enable-background:new 0 0 512 512" xml:space="preserve"><g><g data-name="Out line"><path d="M355.347 297.88 256 381.542l-99.347-83.66-10.306 12.238 104.5 88a8 8 0 0 0 10.306 0l104.5-88ZM112 64.888a235.98 235.98 0 0 0 118.027-20.294L256 32.788l25.973 11.806A235.965 235.965 0 0 0 400 64.888V96h16V56a8 8 0 0 0-8.992-7.938 220.04 220.04 0 0 1-118.414-18.035l-29.283-13.31a8.008 8.008 0 0 0-6.622 0l-29.283 13.31a220.028 220.028 0 0 1-118.414 18.035A8 8 0 0 0 96 56v40h16Z" fill="#3350b9" opacity="1" data-original="#000000"></path><path d="m173.153 269.94-10.306 12.239 88 74.105a8 8 0 0 0 10.306 0l88-74.105-10.306-12.239L256 339.706ZM384 152V89.736a8 8 0 0 0-7.89-7.999A250.452 250.452 0 0 1 275.353 59.16l-16.041-7.292a8.008 8.008 0 0 0-6.622 0l-16.041 7.292a250.452 250.452 0 0 1-100.759 22.578 8 8 0 0 0-7.889 8V152h16V97.512a266.237 266.237 0 0 0 99.269-23.786L256 67.938l12.731 5.788A266.237 266.237 0 0 0 368 97.512V152Z" fill="#3350b9" opacity="1" data-original="#000000"></path><path d="m495.761 486.06-7.893-31.575-23.478-172.167 29.857-37.32a8.004 8.004 0 0 0 1.445-7.196l-16-56a8 8 0 0 0-5.752-5.563L456 171.754v-8.44l5.657-5.657a8 8 0 0 0 1.498-9.235L456 134.112V128h8v-16h-56a8.001 8.001 0 0 0-7.692 5.802l-14.731 51.558-27.517 6.88a8 8 0 0 0-5.752 5.562l-16 56a8.002 8.002 0 0 0 2.035 7.855l37.194 37.194-23.405 171.634-7.893 31.575A8 8 0 0 0 352 496h40a8 8 0 0 0 8-8v-30.796l22.896-74.412L440 456.91V488a8 8 0 0 0 8 8h40a8 8 0 0 0 7.761-9.94ZM414.034 128H440v8a8 8 0 0 0 .845 3.578l5.421 10.842-3.923 3.923A8 8 0 0 0 440 160v8h-4.687l-5.656-5.657a8 8 0 0 0-11.314 11.314l8 8a8.003 8.003 0 0 0 4.139 2.197l-7.725 11.59-21.772-21.772Zm-47.611 62.64 23.123-5.78L416 211.314V256h16v-45.578l14.656-21.985a7.988 7.988 0 0 0 1.034-2.269l17.887 4.473 13.596 47.587L464 257.193V232a8 8 0 0 0-16 0v40h-56v-40a8 8 0 0 0-16 0v28.687l-23.015-23.015Zm24.56 97.36h58.034l21.818 160h-16.47L432 351.09V320h-16v30.796L386.091 448h-16.926Zm-28.737 192 4-16H384v16ZM456 480v-16h17.754l4 16ZM159.868 454.485 136.463 282.85l37.194-37.194a8.002 8.002 0 0 0 2.035-7.855l-16-56a8 8 0 0 0-5.752-5.563l-27.517-6.88-14.73-51.557A8.001 8.001 0 0 0 104 112H48v16h8v6.111l-7.155 14.31a8 8 0 0 0 1.498 9.236L56 163.313v8.441l-17.94 4.485a8 8 0 0 0-5.752 5.563l-16 56a8.004 8.004 0 0 0 1.445 7.196l29.857 37.32-23.478 172.167-7.893 31.575A8 8 0 0 0 24 496h40a8 8 0 0 0 8-8v-31.09l17.104-74.118L112 457.204V488a8 8 0 0 0 8 8h40a8 8 0 0 0 7.761-9.94ZM71.155 139.578A8 8 0 0 0 72 136v-8h25.966l13.049 45.672-21.772 21.771-7.725-11.589a8.003 8.003 0 0 0 4.139-2.197l8-8a8 8 0 0 0-11.314-11.314L76.687 168H72v-8a8 8 0 0 0-2.343-5.657l-3.923-3.923Zm-24.732 51.063 17.887-4.473a7.984 7.984 0 0 0 1.034 2.27L80 210.421V256h16v-44.686l26.454-26.454 23.123 5.78 13.438 47.032L136 260.687V232a8 8 0 0 0-16 0v40H64v-40a8 8 0 0 0-16 0v25.193l-15.173-18.965ZM62.983 288h58.034l21.818 160h-16.926L96 350.796V320H80v31.09L57.636 448H41.165ZM34.246 480l4-16H56v16ZM128 480v-16h17.754l4 16Z" fill="#3350b9" opacity="1" data-original="#000000"></path></g></g></svg>