<svg xmlns="http://www.w3.org/2000/svg" version="1.1" xmlns:xlink="http://www.w3.org/1999/xlink" width="512" height="512" x="0" y="0" viewBox="0 0 511.999 511" style="enable-background:new 0 0 512 512" xml:space="preserve" class=""><g><path d="M385.273 145.703h-.199c-5.52 0-9.996-4.473-9.996-9.996 0-5.52 4.477-9.996 9.996-9.996h.2c5.523 0 9.996 4.477 9.996 9.996a9.993 9.993 0 0 1-9.997 9.996zM301.82 256.977c1.817-1.817 2.723-4.032 2.723-6.614v-59.922c0-2.613-.906-4.91-2.691-6.812-1.79-1.871-4-2.863-6.579-2.863-2.636 0-4.875 1.047-6.687 2.976-1.79 1.875-2.836 4.086-2.836 6.696v59.812c0 2.61.906 4.879 2.75 6.723 1.813 1.843 4.082 2.754 6.66 2.754s4.848-.907 6.66-2.75zM178.602 260.266c10.543 0 19.644-3.602 26.87-11.434 7.344-7.973 10.489-17.762 10.489-28.57 0-10.867-3.09-20.715-10.516-28.715-7.199-7.746-16.242-11.32-26.73-11.32-10.516 0-19.703 3.46-26.957 11.234-7.457 7.918-10.516 17.762-10.516 28.57 0 10.926 3.059 20.883 10.543 28.914 7.258 7.746 16.3 11.32 26.817 11.32zm-12.758-56.606c3.316-4.055 7.543-6.129 12.758-6.129 5.3 0 9.609 1.989 12.894 6.188 3.742 4.738 4.934 10.695 4.934 16.625 0 5.96-1.246 11.86-4.989 16.597-3.289 4.172-7.539 6.215-12.84 6.215-5.3 0-9.609-1.957-12.898-6.156-3.77-4.797-4.933-10.895-4.933-16.855 0-5.93 1.277-11.801 5.074-16.485zM242.55 183.547c-1.843-1.79-4.027-2.781-6.605-2.781-2.582 0-4.793.964-6.605 2.808-1.813 1.817-2.778 4.055-2.778 6.668v58.649c0 2.695.965 4.992 2.805 6.922 1.817 1.93 4.055 2.976 6.692 2.976h27.011c1.192 0 2.356-.195 3.434-.707a9.279 9.279 0 0 0 2.664-1.871c1.7-1.703 2.578-3.777 2.578-6.16 0-1.219-.2-2.383-.707-3.461a8.544 8.544 0 0 0-1.871-2.695l-.027-.055c-1.73-1.59-3.801-2.442-6.153-2.442h-17.547v-51.156c0-2.64-1.02-4.883-2.89-6.695zM92.285 257.969c1.817-1.844 2.778-4.086 2.778-6.668v-15.946h11.539c7.226 0 13.89-2.015 19.105-7.238 5.129-5.133 7.2-11.687 7.2-18.922 0-7.433-2.27-14.015-7.626-19.18-5.441-5.277-12.246-7.378-19.703-7.378H85.965c-2.664 0-4.988.937-6.86 2.867-1.93 1.93-2.835 4.312-2.835 7.035v58.535c0 2.668.906 5.024 2.777 6.895 1.816 1.844 4.027 2.808 6.605 2.808 2.582 0 4.82-.964 6.633-2.808zm2.778-58.137h9.695c2.496 0 4.594.879 6.293 2.75 1.758 1.902 2.55 4.145 2.55 6.727 0 2.523-.906 4.652-2.69 6.437-1.731 1.762-3.802 2.727-6.266 2.727h-9.582zM429.777 199.121c2.325 0 4.336-.934 5.98-2.61l.055-.054c1.532-1.762 2.41-3.832 2.41-6.215 0-2.355-.82-4.398-2.437-6.101-1.644-1.7-3.683-2.551-6.008-2.551h-26.816c-2.664 0-4.902.992-6.746 2.922-1.785 1.898-2.75 4.14-2.75 6.781v57.91c0 2.664.879 4.992 2.777 6.863 1.871 1.844 4.195 2.727 6.805 2.727h27.238c2.41 0 4.535-.766 6.238-2.469 1.672-1.676 2.551-3.719 2.551-6.07 0-1.195-.226-2.387-.738-3.465-.453-1.02-1.074-1.898-1.84-2.695-1.758-1.7-3.828-2.61-6.21-2.61h-17.942v-12.797h15.562c2.465 0 4.621-.792 6.38-2.523 1.644-1.703 2.523-3.746 2.523-6.129 0-2.355-.938-4.37-2.582-6.043-1.73-1.762-3.883-2.61-6.32-2.61H412.23v-12.257h17.547zM355.82 198.27c3.118 0 6.32.878 9.215 2.015 1.844.738 4.762 1.844 6.774 1.844 2.242 0 4.109-.965 5.613-2.64 1.558-1.731 2.324-3.774 2.324-6.13 0-4.539-3.203-7.547-6.945-9.504-4.988-2.667-10.774-3.515-16.383-3.515-10.633 0-19.93 3.46-27.355 11.207-7.567 7.914-10.715 17.789-10.715 28.71 0 10.84 3.09 20.657 10.574 28.575 7.312 7.773 16.523 11.207 27.098 11.207 5.894 0 11.765-1.023 17.007-3.86 3.715-2.042 7.457-5.136 7.457-9.788 0-2.383-.793-4.485-2.41-6.243-1.558-1.675-3.457-2.609-5.754-2.609-1.304 0-2.578.227-3.742.82l-2.863 1.223c-3.149 1.418-6.461 2.211-9.895 2.211-5.242 0-9.605-1.816-12.98-5.871-3.715-4.457-4.961-10.074-4.961-15.777 0-5.79 1.273-11.461 5.047-15.946 3.398-4 7.68-5.93 12.894-5.93zm0 0" fill="#3350b9" opacity="1" data-original="#000000" class=""></path><path d="M502.004 482.504h-12.172V144.977c12.52-2.883 21.887-14.11 21.887-27.485 0-15.57-12.664-28.242-28.227-28.242h-42.441V44.203c0-5.52-4.477-9.996-10-9.996h-96.84a9.95 9.95 0 0 0-3.527-2.613L262.027 1.348a10.004 10.004 0 0 0-8.062 0L185.34 31.594a9.985 9.985 0 0 0-3.527 2.613H80.922c-5.524 0-10 4.477-10 9.996V89.25H28.48C12.934 89.25.281 101.918.281 117.492c0 13.383 9.367 24.613 21.883 27.488V282.2c0 5.519 4.477 9.995 10 9.995 5.52 0 9.996-4.476 9.996-9.996V145.703h182.465c11.113 11.39 22.426 18.996 31.492 20.734.621.122 1.25.18 1.88.18s1.257-.058 1.878-.18c9.074-1.734 20.395-9.343 31.512-20.734h53.832a9.993 9.993 0 0 0 9.996-9.996c0-5.52-4.477-9.996-9.996-9.996h-37.38c.102-.152.212-.297.317-.45a173.36 173.36 0 0 0 9.86-16.015h165.476c4.54 0 8.23 3.7 8.23 8.246 0 4.531-3.69 8.219-8.23 8.219h-59.441c-5.524 0-9.996 4.476-9.996 9.996a9.993 9.993 0 0 0 9.996 9.996h45.789v336.8H317.914V351.458c0-12.723-10.348-23.074-23.066-23.074h-79.34c-12.719 0-23.067 10.351-23.067 23.074v131.047H42.161V362.012c0-5.52-4.477-9.996-9.997-9.996s-9.996 4.476-9.996 9.996v120.492H9.996c-5.52 0-9.996 4.476-9.996 10 0 5.52 4.477 9.996 9.996 9.996h492.008c5.52 0 9.996-4.477 9.996-9.996 0-5.524-4.477-10-9.996-10zM90.918 54.199h89.203c1.402 12.785 4.652 24.61 8.649 35.051H90.918zM28.48 125.711c-4.523 0-8.203-3.688-8.203-8.219 0-4.547 3.68-8.246 8.203-8.246h169.528a173.952 173.952 0 0 0 9.855 16.016c.106.148.215.297.32.449zM258 146.238c-4.734-1.832-12.578-7.441-21.254-16.808a10.28 10.28 0 0 0-.785-.868c-3.813-4.19-7.766-9.082-11.676-14.71-8.683-12.497-22.855-37.106-24.715-66.68L258 21.422l58.453 25.75c-1.855 29.578-16.031 54.183-24.715 66.68-3.922 5.64-7.886 10.546-11.71 14.746-.255.254-.497.515-.723.793-8.692 9.39-16.563 15.011-21.305 16.847zM335.902 54.2h85.153V89.25h-93.801c4-10.441 7.25-22.266 8.648-35.05zM212.437 351.457c0-1.672 1.407-3.082 3.07-3.082h79.34c1.665 0 3.071 1.41 3.071 3.082v131.047h-85.48zm0 0" fill="#3350b9" opacity="1" data-original="#000000" class=""></path><path d="M71.602 306.516V428.66c0 5.524 4.476 10 9.996 10h71.12c5.524 0 10-4.476 10-10V306.516c0-5.524-4.476-9.996-10-9.996H81.603c-5.524 0-10 4.472-10 9.996zm19.996 112.148V377.57h51.125v41.094zm0-102.152h51.125v41.066H91.598zM343.133 306.457v122.18c0 5.52 4.472 9.996 9.996 9.996h71.121c5.52 0 9.996-4.477 9.996-9.996v-122.18c0-5.52-4.476-9.996-9.996-9.996h-71.121c-5.524 0-9.996 4.476-9.996 9.996zm19.992 112.18v-41.094h51.129v41.094zm0-102.184h51.129v41.098h-51.129zM32.164 332.09c5.52 0 9.996-4.477 9.996-9.996v-.2c0-5.523-4.476-9.996-9.996-9.996-5.523 0-10 4.473-10 9.997v.199c0 5.52 4.477 9.996 10 9.996zm0 0" fill="#3350b9" opacity="1" data-original="#000000" class=""></path></g></svg>